<svg width="78" height="17" viewBox="0 0 78 17" fill="none" xmlns="http://www.w3.org/2000/svg">
<path d="M4.14844 16.5H0.523438L6.04688 0.5H10.4063L15.9219 16.5H12.2969L8.28906 4.15625H8.16406L4.14844 16.5ZM3.92188 10.2109H12.4844V12.8516H3.92188V10.2109ZM17.8477 16.5V0.5H21.2305V13.7109H28.0898V16.5H17.8477ZM30.3301 16.5V0.5H36.6426C37.8561 0.5 38.89 0.73177 39.7441 1.19531C40.5983 1.65365 41.2493 2.29167 41.6973 3.10937C42.1504 3.92187 42.377 4.85937 42.377 5.92187C42.377 6.98437 42.1478 7.92187 41.6895 8.73437C41.2311 9.54687 40.5671 10.1797 39.6973 10.6328C38.8327 11.0859 37.7858 11.3125 36.5566 11.3125H32.5332V8.60156H36.0098C36.6608 8.60156 37.1973 8.48958 37.6191 8.26562C38.0462 8.03646 38.3639 7.72135 38.5723 7.32031C38.7858 6.91406 38.8926 6.44792 38.8926 5.92187C38.8926 5.39062 38.7858 4.92708 38.5723 4.53125C38.3639 4.13021 38.0462 3.82031 37.6191 3.60156C37.1921 3.3776 36.6504 3.26562 35.9941 3.26562H33.7129V16.5H30.3301ZM47.957 0.5V16.5H44.5742V0.5H47.957ZM64.123 0.5V16.5H61.2012L54.2402 6.42969H54.123V16.5H50.7402V0.5H53.709L60.6152 10.5625H60.7559V0.5H64.123ZM66.918 16.5V0.5H77.6992V3.28906H70.3008V7.10156H77.1445V9.89062H70.3008V13.7109H77.7305V16.5H66.918Z" fill="black"/>
</svg>
